<svg xmlns="http://www.w3.org/2000/svg" xmlns:xlink="http://www.w3.org/1999/xlink" zoomAndPan="magnify" preserveAspectRatio="xMidYMid meet" version="1.0" viewBox="41.69 154.84 245.24 73.49"><defs><g/></defs><g fill="rgb(0%, 50.19989%, 21.569824%)" fill-opacity="1"><g transform="translate(154.804756, 198.374987)"><g><path d="M 8.3125 -5.09375 C 8.3125 -4.28125 8.351562 -3.617188 8.4375 -3.109375 C 8.53125 -2.597656 8.703125 -2.203125 8.953125 -1.921875 C 9.210938 -1.640625 9.566406 -1.453125 10.015625 -1.359375 C 10.460938 -1.265625 11.0625 -1.21875 11.8125 -1.21875 L 11.8125 0 L 1.4375 0 L 1.4375 -1.21875 C 2.1875 -1.21875 2.789062 -1.265625 3.25 -1.359375 C 3.707031 -1.453125 4.0625 -1.628906 4.3125 -1.890625 C 4.570312 -2.160156 4.742188 -2.535156 4.828125 -3.015625 C 4.910156 -3.503906 4.953125 -4.117188 4.953125 -4.859375 L 4.953125 -19.78125 C 4.953125 -20.582031 4.90625 -21.222656 4.8125 -21.703125 C 4.71875 -22.191406 4.546875 -22.5625 4.296875 -22.8125 C 4.054688 -23.070312 3.734375 -23.238281 3.328125 -23.3125 C 2.921875 -23.382812 2.398438 -23.421875 1.765625 -23.421875 L 1.765625 -24.640625 L 11.484375 -24.640625 L 11.484375 -23.421875 C 10.847656 -23.421875 10.328125 -23.378906 9.921875 -23.296875 C 9.515625 -23.210938 9.1875 -23.03125 8.9375 -22.75 C 8.695312 -22.476562 8.53125 -22.085938 8.4375 -21.578125 C 8.351562 -21.078125 8.3125 -20.398438 8.3125 -19.546875 L 8.3125 -11.640625 L 16.3125 -21.28125 C 16.738281 -21.8125 16.953125 -22.226562 16.953125 -22.53125 C 16.953125 -23.125 16.347656 -23.421875 15.140625 -23.421875 L 15.140625 -24.640625 L 22.84375 -24.640625 L 22.84375 -23.453125 C 22.414062 -23.453125 22.039062 -23.425781 21.71875 -23.375 C 21.40625 -23.320312 21.09375 -23.207031 20.78125 -23.03125 C 20.46875 -22.863281 20.140625 -22.617188 19.796875 -22.296875 C 19.460938 -21.984375 19.070312 -21.570312 18.625 -21.0625 L 12.609375 -14.109375 L 21.953125 -2.875 C 22.484375 -2.257812 22.984375 -1.828125 23.453125 -1.578125 C 23.921875 -1.335938 24.550781 -1.21875 25.34375 -1.21875 L 25.34375 0 L 15.515625 0 L 15.515625 -1.21875 C 16.347656 -1.21875 16.945312 -1.285156 17.3125 -1.421875 C 17.675781 -1.554688 17.859375 -1.773438 17.859375 -2.078125 C 17.859375 -2.253906 17.769531 -2.5 17.59375 -2.8125 C 17.425781 -3.132812 17.148438 -3.53125 16.765625 -4 L 10.53125 -11.6875 L 8.3125 -9.125 Z M 8.3125 -5.09375 "/></g></g></g><g fill="rgb(0%, 50.19989%, 21.569824%)" fill-opacity="1"><g transform="translate(179.086634, 198.374987)"><g><path d="M 8.3125 -6.046875 C 8.3125 -4.984375 8.351562 -4.140625 8.4375 -3.515625 C 8.53125 -2.898438 8.695312 -2.421875 8.9375 -2.078125 C 9.1875 -1.734375 9.539062 -1.507812 10 -1.40625 C 10.457031 -1.300781 11.0625 -1.238281 11.8125 -1.21875 L 11.8125 0 L 1.4375 0 L 1.4375 -1.21875 C 2.1875 -1.238281 2.789062 -1.304688 3.25 -1.421875 C 3.707031 -1.535156 4.0625 -1.753906 4.3125 -2.078125 C 4.570312 -2.398438 4.742188 -2.851562 4.828125 -3.4375 C 4.910156 -4.019531 4.953125 -4.816406 4.953125 -5.828125 L 4.953125 -18.8125 C 4.953125 -19.707031 4.914062 -20.445312 4.84375 -21.03125 C 4.769531 -21.625 4.617188 -22.085938 4.390625 -22.421875 C 4.171875 -22.765625 3.847656 -23.003906 3.421875 -23.140625 C 2.992188 -23.285156 2.441406 -23.378906 1.765625 -23.421875 L 1.765625 -24.640625 L 11.484375 -24.640625 L 11.484375 -23.421875 C 10.804688 -23.398438 10.257812 -23.3125 9.84375 -23.15625 C 9.425781 -23.007812 9.101562 -22.757812 8.875 -22.40625 C 8.65625 -22.0625 8.503906 -21.578125 8.421875 -20.953125 C 8.347656 -20.335938 8.3125 -19.550781 8.3125 -18.59375 Z M 8.3125 -6.046875 "/></g></g></g><g fill="rgb(0%, 50.19989%, 21.569824%)" fill-opacity="1"><g transform="translate(191.723371, 198.374987)"><g><path d="M 8.3125 -6.046875 C 8.3125 -4.984375 8.351562 -4.140625 8.4375 -3.515625 C 8.53125 -2.898438 8.695312 -2.421875 8.9375 -2.078125 C 9.1875 -1.734375 9.539062 -1.507812 10 -1.40625 C 10.457031 -1.300781 11.0625 -1.238281 11.8125 -1.21875 L 11.8125 0 L 1.4375 0 L 1.4375 -1.21875 C 2.1875 -1.238281 2.789062 -1.304688 3.25 -1.421875 C 3.707031 -1.535156 4.0625 -1.753906 4.3125 -2.078125 C 4.570312 -2.398438 4.742188 -2.851562 4.828125 -3.4375 C 4.910156 -4.019531 4.953125 -4.816406 4.953125 -5.828125 L 4.953125 -18.8125 C 4.953125 -19.707031 4.914062 -20.445312 4.84375 -21.03125 C 4.769531 -21.625 4.617188 -22.085938 4.390625 -22.421875 C 4.171875 -22.765625 3.847656 -23.003906 3.421875 -23.140625 C 2.992188 -23.285156 2.441406 -23.378906 1.765625 -23.421875 L 1.765625 -24.640625 L 11.484375 -24.640625 L 11.484375 -23.421875 C 10.804688 -23.398438 10.257812 -23.3125 9.84375 -23.15625 C 9.425781 -23.007812 9.101562 -22.757812 8.875 -22.40625 C 8.65625 -22.0625 8.503906 -21.578125 8.421875 -20.953125 C 8.347656 -20.335938 8.3125 -19.550781 8.3125 -18.59375 Z M 8.3125 -6.046875 "/></g></g></g><g fill="rgb(0%, 50.19989%, 21.569824%)" fill-opacity="1"><g transform="translate(204.360108, 198.374987)"><g><path d="M 25.15625 -18.53125 L 23.84375 -18.53125 C 23.78125 -19.445312 23.628906 -20.210938 23.390625 -20.828125 C 23.160156 -21.453125 22.828125 -21.9375 22.390625 -22.28125 C 21.953125 -22.632812 21.398438 -22.882812 20.734375 -23.03125 C 20.078125 -23.1875 19.289062 -23.265625 18.375 -23.265625 C 17.582031 -23.265625 16.945312 -23.25 16.46875 -23.21875 C 15.988281 -23.1875 15.617188 -23.125 15.359375 -23.03125 C 15.097656 -22.945312 14.929688 -22.847656 14.859375 -22.734375 C 14.785156 -22.617188 14.75 -22.460938 14.75 -22.265625 L 14.75 -5.15625 C 14.75 -4.46875 14.796875 -3.878906 14.890625 -3.390625 C 14.992188 -2.898438 15.1875 -2.5 15.46875 -2.1875 C 15.757812 -1.882812 16.175781 -1.648438 16.71875 -1.484375 C 17.257812 -1.328125 17.976562 -1.238281 18.875 -1.21875 L 18.875 0 L 6.78125 0 L 6.78125 -1.21875 C 7.675781 -1.238281 8.398438 -1.328125 8.953125 -1.484375 C 9.515625 -1.648438 9.9375 -1.882812 10.21875 -2.1875 C 10.507812 -2.5 10.703125 -2.898438 10.796875 -3.390625 C 10.890625 -3.878906 10.9375 -4.46875 10.9375 -5.15625 L 10.9375 -22.265625 C 10.9375 -22.460938 10.898438 -22.617188 10.828125 -22.734375 C 10.753906 -22.847656 10.601562 -22.945312 10.375 -23.03125 C 10.15625 -23.125 9.84375 -23.1875 9.4375 -23.21875 C 9.03125 -23.25 8.488281 -23.265625 7.8125 -23.265625 C 6.976562 -23.265625 6.203125 -23.234375 5.484375 -23.171875 C 4.773438 -23.109375 4.15625 -22.921875 3.625 -22.609375 C 3.101562 -22.296875 2.679688 -21.816406 2.359375 -21.171875 C 2.046875 -20.535156 1.878906 -19.65625 1.859375 -18.53125 L 0.671875 -18.53125 L 0.671875 -24.640625 L 24.828125 -24.640625 Z M 25.15625 -18.53125 "/></g></g></g><path fill="rgb(0%, 50.19989%, 21.569824%)" d="M 119.902344 181.175781 L 58.871094 181.175781 L 58.871094 177.089844 L 89.382812 154.84375 L 119.902344 177.089844 L 119.902344 181.175781 " fill-opacity="1" fill-rule="nonzero"/><path fill="rgb(0%, 50.19989%, 21.569824%)" d="M 61.628906 183.417969 L 117.144531 183.417969 L 117.144531 178.722656 L 61.628906 178.722656 Z M 61.628906 183.417969 " fill-opacity="1" fill-rule="nonzero"/><path fill="rgb(0%, 50.19989%, 21.569824%)" d="M 60.554688 216.890625 L 117.144531 216.890625 L 117.144531 213.421875 L 60.554688 213.421875 Z M 60.554688 216.890625 " fill-opacity="1" fill-rule="nonzero"/><path fill="rgb(0%, 50.19989%, 21.569824%)" d="M 57.796875 220.15625 L 119.902344 220.15625 L 119.902344 216.890625 L 57.796875 216.890625 Z M 57.796875 220.15625 " fill-opacity="1" fill-rule="nonzero"/><path fill="rgb(0%, 50.19989%, 21.569824%)" d="M 64.1875 186.273438 L 73.179688 186.273438 L 73.179688 184.234375 L 64.1875 184.234375 Z M 64.1875 186.273438 " fill-opacity="1" fill-rule="nonzero"/><path fill="rgb(0%, 50.19989%, 21.569824%)" d="M 64.1875 212.605469 L 73.179688 212.605469 L 73.179688 210.570312 L 64.1875 210.570312 Z M 64.1875 212.605469 " fill-opacity="1" fill-rule="nonzero"/><path fill="rgb(0%, 50.19989%, 21.569824%)" d="M 65.144531 210.714844 L 72.21875 210.714844 L 72.21875 185.253906 L 65.144531 185.253906 Z M 65.144531 210.714844 " fill-opacity="1" fill-rule="nonzero"/><path fill="rgb(0%, 50.19989%, 21.569824%)" d="M 84.964844 186.273438 L 93.953125 186.273438 L 93.953125 184.234375 L 84.964844 184.234375 Z M 84.964844 186.273438 " fill-opacity="1" fill-rule="nonzero"/><path fill="rgb(0%, 50.19989%, 21.569824%)" d="M 84.964844 212.605469 L 93.953125 212.605469 L 93.953125 210.570312 L 84.964844 210.570312 Z M 84.964844 212.605469 " fill-opacity="1" fill-rule="nonzero"/><path fill="rgb(0%, 50.19989%, 21.569824%)" d="M 85.917969 210.714844 L 92.996094 210.714844 L 92.996094 185.253906 L 85.917969 185.253906 Z M 85.917969 210.714844 " fill-opacity="1" fill-rule="nonzero"/><path fill="rgb(0%, 50.19989%, 21.569824%)" d="M 105.738281 186.273438 L 114.730469 186.273438 L 114.730469 184.234375 L 105.738281 184.234375 Z M 105.738281 186.273438 " fill-opacity="1" fill-rule="nonzero"/><path fill="rgb(0%, 50.19989%, 21.569824%)" d="M 105.738281 212.605469 L 114.730469 212.605469 L 114.730469 210.570312 L 105.738281 210.570312 Z M 105.738281 212.605469 " fill-opacity="1" fill-rule="nonzero"/><path fill="rgb(0%, 50.19989%, 21.569824%)" d="M 106.695312 210.714844 L 113.769531 210.714844 L 113.769531 185.253906 L 106.695312 185.253906 Z M 106.695312 210.714844 " fill-opacity="1" fill-rule="nonzero"/><path fill="rgb(0%, 50.19989%, 21.569824%)" d="M 53.863281 174.269531 C 52.929688 177.257812 49.851562 178.957031 49.851562 178.957031 C 49.851562 178.957031 48.289062 175.808594 49.222656 172.820312 C 50.15625 169.828125 53.234375 168.128906 53.234375 168.128906 C 53.234375 168.128906 54.796875 171.277344 53.863281 174.269531 " fill-opacity="1" fill-rule="nonzero"/><path fill="rgb(0%, 50.19989%, 21.569824%)" d="M 54.320312 183.90625 C 51.847656 185.824219 48.351562 185.460938 48.351562 185.460938 C 48.351562 185.460938 48.867188 181.984375 51.339844 180.066406 C 53.8125 178.144531 57.308594 178.507812 57.308594 178.507812 C 57.308594 178.507812 56.796875 181.984375 54.320312 183.90625 " fill-opacity="1" fill-rule="nonzero"/><path fill="rgb(0%, 50.19989%, 21.569824%)" d="M 43.449219 181.648438 C 44.914062 184.414062 48.253906 185.519531 48.253906 185.519531 C 48.253906 185.519531 49.210938 182.140625 47.742188 179.371094 C 46.273438 176.605469 42.9375 175.5 42.9375 175.5 C 42.9375 175.5 41.980469 178.878906 43.449219 181.648438 " fill-opacity="1" fill-rule="nonzero"/><path fill="rgb(0%, 50.19989%, 21.569824%)" d="M 54.011719 190.238281 C 51.683594 192.339844 48.171875 192.234375 48.171875 192.234375 C 48.171875 192.234375 48.425781 188.730469 50.753906 186.632812 C 53.078125 184.53125 56.589844 184.632812 56.589844 184.632812 C 56.589844 184.632812 56.335938 188.140625 54.011719 190.238281 " fill-opacity="1" fill-rule="nonzero"/><path fill="rgb(0%, 50.19989%, 21.569824%)" d="M 42.996094 188.792969 C 44.664062 191.449219 48.078125 192.300781 48.078125 192.300781 C 48.078125 192.300781 48.78125 188.855469 47.113281 186.207031 C 45.445312 183.554688 42.035156 182.699219 42.035156 182.699219 C 42.035156 182.699219 41.332031 186.144531 42.996094 188.792969 " fill-opacity="1" fill-rule="nonzero"/><path fill="rgb(0%, 50.19989%, 21.569824%)" d="M 54.464844 196.457031 C 52.394531 198.808594 48.894531 199.109375 48.894531 199.109375 C 48.894531 199.109375 48.746094 195.597656 50.8125 193.246094 C 52.882812 190.890625 56.386719 190.59375 56.386719 190.59375 C 56.386719 190.59375 56.53125 194.105469 54.464844 196.457031 " fill-opacity="1" fill-rule="nonzero"/><path fill="rgb(0%, 50.19989%, 21.569824%)" d="M 43.359375 196.285156 C 45.320312 198.726562 48.804688 199.183594 48.804688 199.183594 C 48.804688 199.183594 49.109375 195.683594 47.148438 193.242188 C 45.1875 190.796875 41.703125 190.339844 41.703125 190.339844 C 41.703125 190.339844 41.398438 193.84375 43.359375 196.285156 " fill-opacity="1" fill-rule="nonzero"/><path fill="rgb(0%, 50.19989%, 21.569824%)" d="M 56.613281 202.980469 C 55.136719 205.742188 51.796875 206.839844 51.796875 206.839844 C 51.796875 206.839844 50.847656 203.453125 52.324219 200.6875 C 53.800781 197.925781 57.140625 196.832031 57.140625 196.832031 C 57.140625 196.832031 58.089844 200.21875 56.613281 202.980469 " fill-opacity="1" fill-rule="nonzero"/><path fill="rgb(0%, 50.19989%, 21.569824%)" d="M 45.761719 205.355469 C 48.234375 207.28125 51.730469 206.929688 51.730469 206.929688 C 51.730469 206.929688 51.226562 203.453125 48.757812 201.523438 C 46.289062 199.59375 42.792969 199.945312 42.792969 199.945312 C 42.792969 199.945312 43.296875 203.425781 45.761719 205.355469 " fill-opacity="1" fill-rule="nonzero"/><path fill="rgb(0%, 50.19989%, 21.569824%)" d="M 60.113281 208.5625 C 59.164062 211.550781 56.074219 213.230469 56.074219 213.230469 C 56.074219 213.230469 54.53125 210.070312 55.484375 207.089844 C 56.433594 204.105469 59.519531 202.421875 59.519531 202.421875 C 59.519531 202.421875 61.066406 205.582031 60.113281 208.5625 " fill-opacity="1" fill-rule="nonzero"/><path fill="rgb(0%, 50.19989%, 21.569824%)" d="M 49.875 212.863281 C 52.652344 214.3125 56.027344 213.332031 56.027344 213.332031 C 56.027344 213.332031 54.902344 210.003906 52.125 208.554688 C 49.347656 207.101562 45.972656 208.082031 45.972656 208.082031 C 45.972656 208.082031 47.097656 211.414062 49.875 212.863281 " fill-opacity="1" fill-rule="nonzero"/><path fill="rgb(0%, 50.19989%, 21.569824%)" d="M 58.859375 216.324219 C 58.824219 216.3125 58.792969 216.296875 58.761719 216.277344 C 56.128906 214.539062 52.183594 210.027344 49.730469 203.035156 C 47.789062 197.488281 46.234375 188.582031 49.867188 177.65625 C 49.933594 177.457031 50.136719 177.351562 50.351562 177.414062 C 50.550781 177.480469 50.65625 177.695312 50.589844 177.898438 C 44.40625 196.488281 53.136719 211.652344 59.183594 215.640625 C 59.355469 215.757812 59.40625 215.992188 59.289062 216.171875 C 59.195312 216.3125 59.019531 216.371094 58.859375 216.324219 " fill-opacity="1" fill-rule="nonzero"/><path fill="rgb(0%, 50.19989%, 21.569824%)" d="M 123.578125 174.269531 C 124.511719 177.257812 127.585938 178.957031 127.585938 178.957031 C 127.585938 178.957031 129.152344 175.808594 128.21875 172.820312 C 127.28125 169.828125 124.207031 168.128906 124.207031 168.128906 C 124.207031 168.128906 122.640625 171.277344 123.578125 174.269531 " fill-opacity="1" fill-rule="nonzero"/><path fill="rgb(0%, 50.19989%, 21.569824%)" d="M 123.117188 183.90625 C 125.59375 185.824219 129.089844 185.460938 129.089844 185.460938 C 129.089844 185.460938 128.574219 181.984375 126.101562 180.066406 C 123.625 178.144531 120.132812 178.507812 120.132812 178.507812 C 120.132812 178.507812 120.644531 181.984375 123.117188 183.90625 " fill-opacity="1" fill-rule="nonzero"/><path fill="rgb(0%, 50.19989%, 21.569824%)" d="M 133.992188 181.648438 C 132.523438 184.414062 129.1875 185.519531 129.1875 185.519531 C 129.1875 185.519531 128.230469 182.140625 129.699219 179.371094 C 131.164062 176.605469 134.503906 175.5 134.503906 175.5 C 134.503906 175.5 135.460938 178.878906 133.992188 181.648438 " fill-opacity="1" fill-rule="nonzero"/><path fill="rgb(0%, 50.19989%, 21.569824%)" d="M 123.429688 190.238281 C 125.757812 192.339844 129.269531 192.234375 129.269531 192.234375 C 129.269531 192.234375 129.011719 188.730469 126.6875 186.632812 C 124.363281 184.53125 120.847656 184.632812 120.847656 184.632812 C 120.847656 184.632812 121.105469 188.140625 123.429688 190.238281 " fill-opacity="1" fill-rule="nonzero"/><path fill="rgb(0%, 50.19989%, 21.569824%)" d="M 134.441406 188.792969 C 132.777344 191.449219 129.367188 192.300781 129.367188 192.300781 C 129.367188 192.300781 128.660156 188.855469 130.328125 186.207031 C 131.996094 183.554688 135.40625 182.699219 135.40625 182.699219 C 135.40625 182.699219 136.109375 186.144531 134.441406 188.792969 " fill-opacity="1" fill-rule="nonzero"/><path fill="rgb(0%, 50.19989%, 21.569824%)" d="M 122.976562 196.457031 C 125.042969 198.808594 128.546875 199.109375 128.546875 199.109375 C 128.546875 199.109375 128.695312 195.597656 126.625 193.246094 C 124.558594 190.890625 121.058594 190.59375 121.058594 190.59375 C 121.058594 190.59375 120.90625 194.105469 122.976562 196.457031 " fill-opacity="1" fill-rule="nonzero"/><path fill="rgb(0%, 50.19989%, 21.569824%)" d="M 134.082031 196.285156 C 132.121094 198.726562 128.636719 199.183594 128.636719 199.183594 C 128.636719 199.183594 128.328125 195.683594 130.292969 193.242188 C 132.25 190.796875 135.738281 190.339844 135.738281 190.339844 C 135.738281 190.339844 136.042969 193.84375 134.082031 196.285156 " fill-opacity="1" fill-rule="nonzero"/><path fill="rgb(0%, 50.19989%, 21.569824%)" d="M 120.828125 202.980469 C 122.304688 205.742188 125.644531 206.839844 125.644531 206.839844 C 125.644531 206.839844 126.589844 203.453125 125.117188 200.6875 C 123.640625 197.925781 120.296875 196.832031 120.296875 196.832031 C 120.296875 196.832031 119.351562 200.21875 120.828125 202.980469 " fill-opacity="1" fill-rule="nonzero"/><path fill="rgb(0%, 50.19989%, 21.569824%)" d="M 131.675781 205.355469 C 129.210938 207.28125 125.710938 206.929688 125.710938 206.929688 C 125.710938 206.929688 126.21875 203.453125 128.683594 201.523438 C 131.152344 199.59375 134.648438 199.945312 134.648438 199.945312 C 134.648438 199.945312 134.144531 203.425781 131.675781 205.355469 " fill-opacity="1" fill-rule="nonzero"/><path fill="rgb(0%, 50.19989%, 21.569824%)" d="M 117.324219 208.5625 C 118.277344 211.550781 121.363281 213.230469 121.363281 213.230469 C 121.363281 213.230469 122.910156 210.070312 121.957031 207.089844 C 121.007812 204.105469 117.917969 202.421875 117.917969 202.421875 C 117.917969 202.421875 116.375 205.582031 117.324219 208.5625 " fill-opacity="1" fill-rule="nonzero"/><path fill="rgb(0%, 50.19989%, 21.569824%)" d="M 127.566406 212.863281 C 124.789062 214.3125 121.414062 213.332031 121.414062 213.332031 C 121.414062 213.332031 122.539062 210.003906 125.316406 208.554688 C 128.09375 207.101562 131.46875 208.082031 131.46875 208.082031 C 131.46875 208.082031 130.339844 211.414062 127.566406 212.863281 " fill-opacity="1" fill-rule="nonzero"/><path fill="rgb(0%, 50.19989%, 21.569824%)" d="M 118.582031 216.324219 C 118.617188 216.3125 118.648438 216.296875 118.675781 216.277344 C 121.3125 214.539062 125.257812 210.027344 127.710938 203.035156 C 129.652344 197.488281 131.207031 188.582031 127.574219 177.65625 C 127.507812 177.457031 127.304688 177.351562 127.089844 177.414062 C 126.890625 177.480469 126.78125 177.695312 126.847656 177.898438 C 133.035156 196.488281 124.304688 211.652344 118.257812 215.640625 C 118.082031 215.757812 118.035156 215.992188 118.148438 216.171875 C 118.246094 216.3125 118.421875 216.371094 118.582031 216.324219 " fill-opacity="1" fill-rule="nonzero"/><g fill="rgb(0%, 50.19989%, 21.569824%)" fill-opacity="1"><g transform="translate(154.804756, 228.099991)"><g><path d="M 15.84375 -17.703125 L 16.484375 -17.703125 L 16.703125 -12.421875 L 15.84375 -12.421875 C 15.507812 -13.765625 14.859375 -14.820312 13.890625 -15.59375 C 12.921875 -16.363281 11.753906 -16.75 10.390625 -16.75 C 9.460938 -16.75 8.628906 -16.5625 7.890625 -16.1875 C 7.148438 -15.820312 6.523438 -15.289062 6.015625 -14.59375 C 5.515625 -13.90625 5.128906 -13.0625 4.859375 -12.0625 C 4.597656 -11.070312 4.46875 -9.945312 4.46875 -8.6875 C 4.46875 -6.21875 4.976562 -4.320312 6 -3 C 7.03125 -1.675781 8.519531 -1.015625 10.46875 -1.015625 C 13.425781 -1.015625 15.328125 -2.585938 16.171875 -5.734375 L 17.109375 -5.734375 L 17.109375 0 L 16.3125 0 L 15.78125 -1.8125 C 14.164062 -0.445312 12.21875 0.234375 9.9375 0.234375 C 8.632812 0.234375 7.457031 0.0234375 6.40625 -0.390625 C 5.351562 -0.804688 4.453125 -1.390625 3.703125 -2.140625 C 2.960938 -2.898438 2.390625 -3.828125 1.984375 -4.921875 C 1.578125 -6.015625 1.375 -7.226562 1.375 -8.5625 C 1.375 -9.957031 1.585938 -11.226562 2.015625 -12.375 C 2.453125 -13.519531 3.054688 -14.503906 3.828125 -15.328125 C 4.597656 -16.160156 5.523438 -16.800781 6.609375 -17.25 C 7.691406 -17.707031 8.882812 -17.9375 10.1875 -17.9375 C 11.101562 -17.9375 11.96875 -17.804688 12.78125 -17.546875 C 13.59375 -17.285156 14.476562 -16.863281 15.4375 -16.28125 Z M 15.84375 -17.703125 "/></g></g></g><g fill="rgb(0%, 50.19989%, 21.569824%)" fill-opacity="1"><g transform="translate(172.784536, 228.099991)"><g><path d="M 10.875 -17.9375 C 12.226562 -17.9375 13.488281 -17.695312 14.65625 -17.21875 C 15.820312 -16.75 16.832031 -16.097656 17.6875 -15.265625 C 18.539062 -14.441406 19.210938 -13.46875 19.703125 -12.34375 C 20.203125 -11.226562 20.453125 -10.019531 20.453125 -8.71875 C 20.453125 -7.476562 20.203125 -6.3125 19.703125 -5.21875 C 19.203125 -4.132812 18.519531 -3.1875 17.65625 -2.375 C 16.800781 -1.570312 15.789062 -0.9375 14.625 -0.46875 C 13.457031 0 12.207031 0.234375 10.875 0.234375 C 9.539062 0.234375 8.289062 0 7.125 -0.46875 C 5.957031 -0.9375 4.945312 -1.570312 4.09375 -2.375 C 3.238281 -3.1875 2.5625 -4.132812 2.0625 -5.21875 C 1.5625 -6.3125 1.3125 -7.476562 1.3125 -8.71875 C 1.3125 -10.019531 1.554688 -11.226562 2.046875 -12.34375 C 2.535156 -13.46875 3.207031 -14.441406 4.0625 -15.265625 C 4.925781 -16.097656 5.941406 -16.75 7.109375 -17.21875 C 8.273438 -17.695312 9.53125 -17.9375 10.875 -17.9375 Z M 10.875 -1.03125 C 11.882812 -1.03125 12.789062 -1.207031 13.59375 -1.5625 C 14.40625 -1.914062 15.097656 -2.421875 15.671875 -3.078125 C 16.242188 -3.742188 16.679688 -4.546875 16.984375 -5.484375 C 17.296875 -6.429688 17.453125 -7.484375 17.453125 -8.640625 C 17.453125 -9.867188 17.296875 -10.976562 16.984375 -11.96875 C 16.679688 -12.957031 16.242188 -13.800781 15.671875 -14.5 C 15.109375 -15.195312 14.421875 -15.734375 13.609375 -16.109375 C 12.796875 -16.484375 11.882812 -16.671875 10.875 -16.671875 C 9.863281 -16.671875 8.953125 -16.484375 8.140625 -16.109375 C 7.328125 -15.734375 6.632812 -15.195312 6.0625 -14.5 C 5.5 -13.800781 5.0625 -12.957031 4.75 -11.96875 C 4.445312 -10.976562 4.296875 -9.867188 4.296875 -8.640625 C 4.296875 -7.484375 4.445312 -6.429688 4.75 -5.484375 C 5.0625 -4.546875 5.5 -3.742188 6.0625 -3.078125 C 6.632812 -2.421875 7.328125 -1.914062 8.140625 -1.5625 C 8.953125 -1.207031 9.863281 -1.03125 10.875 -1.03125 Z M 10.875 -1.03125 "/></g></g></g><g fill="rgb(0%, 50.19989%, 21.569824%)" fill-opacity="1"><g transform="translate(194.075206, 228.099991)"><g><path d="M 15.96875 0.234375 L 5.03125 -14.171875 L 4.9375 -14.171875 L 4.9375 -4.34375 C 4.9375 -3.582031 4.960938 -2.976562 5.015625 -2.53125 C 5.078125 -2.082031 5.1875 -1.734375 5.34375 -1.484375 C 5.507812 -1.242188 5.738281 -1.082031 6.03125 -1 C 6.332031 -0.925781 6.726562 -0.882812 7.21875 -0.875 L 7.21875 0 L 1.03125 0 L 1.03125 -0.875 C 1.570312 -0.882812 2.003906 -0.929688 2.328125 -1.015625 C 2.660156 -1.109375 2.914062 -1.269531 3.09375 -1.5 C 3.28125 -1.726562 3.40625 -2.050781 3.46875 -2.46875 C 3.53125 -2.894531 3.5625 -3.46875 3.5625 -4.1875 L 3.5625 -13.53125 C 3.5625 -14.164062 3.535156 -14.691406 3.484375 -15.109375 C 3.429688 -15.535156 3.320312 -15.867188 3.15625 -16.109375 C 3 -16.359375 2.765625 -16.535156 2.453125 -16.640625 C 2.148438 -16.742188 1.753906 -16.8125 1.265625 -16.84375 L 1.265625 -17.703125 L 5.8125 -17.703125 L 15.875 -4.296875 L 15.96875 -4.296875 L 15.96875 -13.359375 C 15.96875 -14.109375 15.9375 -14.707031 15.875 -15.15625 C 15.820312 -15.613281 15.710938 -15.960938 15.546875 -16.203125 C 15.390625 -16.453125 15.160156 -16.613281 14.859375 -16.6875 C 14.566406 -16.769531 14.175781 -16.820312 13.6875 -16.84375 L 13.6875 -17.703125 L 19.875 -17.703125 L 19.875 -16.84375 C 19.332031 -16.820312 18.894531 -16.769531 18.5625 -16.6875 C 18.238281 -16.601562 17.984375 -16.445312 17.796875 -16.21875 C 17.617188 -15.988281 17.5 -15.65625 17.4375 -15.21875 C 17.375 -14.789062 17.34375 -14.226562 17.34375 -13.53125 L 17.34375 0.234375 Z M 15.96875 0.234375 "/></g></g></g><g fill="rgb(0%, 50.19989%, 21.569824%)" fill-opacity="1"><g transform="translate(214.354222, 228.099991)"><g><path d="M 15.96875 0.234375 L 5.03125 -14.171875 L 4.9375 -14.171875 L 4.9375 -4.34375 C 4.9375 -3.582031 4.960938 -2.976562 5.015625 -2.53125 C 5.078125 -2.082031 5.1875 -1.734375 5.34375 -1.484375 C 5.507812 -1.242188 5.738281 -1.082031 6.03125 -1 C 6.332031 -0.925781 6.726562 -0.882812 7.21875 -0.875 L 7.21875 0 L 1.03125 0 L 1.03125 -0.875 C 1.570312 -0.882812 2.003906 -0.929688 2.328125 -1.015625 C 2.660156 -1.109375 2.914062 -1.269531 3.09375 -1.5 C 3.28125 -1.726562 3.40625 -2.050781 3.46875 -2.46875 C 3.53125 -2.894531 3.5625 -3.46875 3.5625 -4.1875 L 3.5625 -13.53125 C 3.5625 -14.164062 3.535156 -14.691406 3.484375 -15.109375 C 3.429688 -15.535156 3.320312 -15.867188 3.15625 -16.109375 C 3 -16.359375 2.765625 -16.535156 2.453125 -16.640625 C 2.148438 -16.742188 1.753906 -16.8125 1.265625 -16.84375 L 1.265625 -17.703125 L 5.8125 -17.703125 L 15.875 -4.296875 L 15.96875 -4.296875 L 15.96875 -13.359375 C 15.96875 -14.109375 15.9375 -14.707031 15.875 -15.15625 C 15.820312 -15.613281 15.710938 -15.960938 15.546875 -16.203125 C 15.390625 -16.453125 15.160156 -16.613281 14.859375 -16.6875 C 14.566406 -16.769531 14.175781 -16.820312 13.6875 -16.84375 L 13.6875 -17.703125 L 19.875 -17.703125 L 19.875 -16.84375 C 19.332031 -16.820312 18.894531 -16.769531 18.5625 -16.6875 C 18.238281 -16.601562 17.984375 -16.445312 17.796875 -16.21875 C 17.617188 -15.988281 17.5 -15.65625 17.4375 -15.21875 C 17.375 -14.789062 17.34375 -14.226562 17.34375 -13.53125 L 17.34375 0.234375 Z M 15.96875 0.234375 "/></g></g></g><g fill="rgb(0%, 50.19989%, 21.569824%)" fill-opacity="1"><g transform="translate(234.633231, 228.099991)"><g><path d="M 5.984375 -9.734375 C 6.804688 -9.734375 7.5 -9.78125 8.0625 -9.875 C 8.625 -9.976562 9.066406 -10.132812 9.390625 -10.34375 C 9.722656 -10.5625 9.960938 -10.835938 10.109375 -11.171875 C 10.253906 -11.515625 10.328125 -11.914062 10.328125 -12.375 L 11.125 -12.375 L 11.125 -6.09375 L 10.328125 -6.09375 C 10.328125 -6.550781 10.257812 -6.945312 10.125 -7.28125 C 10 -7.625 9.769531 -7.90625 9.4375 -8.125 C 9.113281 -8.351562 8.671875 -8.523438 8.109375 -8.640625 C 7.546875 -8.753906 6.835938 -8.8125 5.984375 -8.8125 L 5.984375 -3.609375 C 5.984375 -3.109375 6.039062 -2.691406 6.15625 -2.359375 C 6.28125 -2.023438 6.492188 -1.753906 6.796875 -1.546875 C 7.097656 -1.335938 7.492188 -1.191406 7.984375 -1.109375 C 8.472656 -1.023438 9.078125 -0.984375 9.796875 -0.984375 C 10.609375 -0.984375 11.296875 -1.039062 11.859375 -1.15625 C 12.429688 -1.269531 12.910156 -1.460938 13.296875 -1.734375 C 13.679688 -2.015625 13.988281 -2.378906 14.21875 -2.828125 C 14.445312 -3.285156 14.632812 -3.851562 14.78125 -4.53125 L 15.65625 -4.53125 L 15.3125 0 L 1.03125 0 L 1.03125 -0.875 C 1.570312 -0.882812 2.003906 -0.925781 2.328125 -1 C 2.660156 -1.082031 2.914062 -1.210938 3.09375 -1.390625 C 3.28125 -1.578125 3.40625 -1.835938 3.46875 -2.171875 C 3.53125 -2.515625 3.5625 -2.957031 3.5625 -3.5 L 3.5625 -14.21875 C 3.5625 -14.75 3.535156 -15.179688 3.484375 -15.515625 C 3.429688 -15.847656 3.320312 -16.109375 3.15625 -16.296875 C 3 -16.484375 2.765625 -16.613281 2.453125 -16.6875 C 2.148438 -16.757812 1.753906 -16.8125 1.265625 -16.84375 L 1.265625 -17.703125 L 14.5625 -17.703125 L 14.765625 -13.65625 L 13.96875 -13.65625 C 13.875 -14.269531 13.722656 -14.769531 13.515625 -15.15625 C 13.304688 -15.550781 13.019531 -15.863281 12.65625 -16.09375 C 12.300781 -16.320312 11.847656 -16.484375 11.296875 -16.578125 C 10.742188 -16.671875 10.078125 -16.71875 9.296875 -16.71875 L 6.375 -16.71875 C 6.113281 -16.71875 5.984375 -16.585938 5.984375 -16.328125 Z M 5.984375 -9.734375 "/></g></g></g><g fill="rgb(0%, 50.19989%, 21.569824%)" fill-opacity="1"><g transform="translate(250.865599, 228.099991)"><g><path d="M 15.84375 -17.703125 L 16.484375 -17.703125 L 16.703125 -12.421875 L 15.84375 -12.421875 C 15.507812 -13.765625 14.859375 -14.820312 13.890625 -15.59375 C 12.921875 -16.363281 11.753906 -16.75 10.390625 -16.75 C 9.460938 -16.75 8.628906 -16.5625 7.890625 -16.1875 C 7.148438 -15.820312 6.523438 -15.289062 6.015625 -14.59375 C 5.515625 -13.90625 5.128906 -13.0625 4.859375 -12.0625 C 4.597656 -11.070312 4.46875 -9.945312 4.46875 -8.6875 C 4.46875 -6.21875 4.976562 -4.320312 6 -3 C 7.03125 -1.675781 8.519531 -1.015625 10.46875 -1.015625 C 13.425781 -1.015625 15.328125 -2.585938 16.171875 -5.734375 L 17.109375 -5.734375 L 17.109375 0 L 16.3125 0 L 15.78125 -1.8125 C 14.164062 -0.445312 12.21875 0.234375 9.9375 0.234375 C 8.632812 0.234375 7.457031 0.0234375 6.40625 -0.390625 C 5.351562 -0.804688 4.453125 -1.390625 3.703125 -2.140625 C 2.960938 -2.898438 2.390625 -3.828125 1.984375 -4.921875 C 1.578125 -6.015625 1.375 -7.226562 1.375 -8.5625 C 1.375 -9.957031 1.585938 -11.226562 2.015625 -12.375 C 2.453125 -13.519531 3.054688 -14.503906 3.828125 -15.328125 C 4.597656 -16.160156 5.523438 -16.800781 6.609375 -17.25 C 7.691406 -17.707031 8.882812 -17.9375 10.1875 -17.9375 C 11.101562 -17.9375 11.96875 -17.804688 12.78125 -17.546875 C 13.59375 -17.285156 14.476562 -16.863281 15.4375 -16.28125 Z M 15.84375 -17.703125 "/></g></g></g><g fill="rgb(0%, 50.19989%, 21.569824%)" fill-opacity="1"><g transform="translate(268.845376, 228.099991)"><g><path d="M 18.078125 -13.3125 L 17.140625 -13.3125 C 17.085938 -13.976562 16.976562 -14.53125 16.8125 -14.96875 C 16.644531 -15.414062 16.398438 -15.765625 16.078125 -16.015625 C 15.765625 -16.273438 15.367188 -16.457031 14.890625 -16.5625 C 14.421875 -16.664062 13.859375 -16.71875 13.203125 -16.71875 C 12.628906 -16.71875 12.171875 -16.707031 11.828125 -16.6875 C 11.484375 -16.664062 11.21875 -16.625 11.03125 -16.5625 C 10.851562 -16.5 10.738281 -16.425781 10.6875 -16.34375 C 10.632812 -16.257812 10.609375 -16.148438 10.609375 -16.015625 L 10.609375 -3.703125 C 10.609375 -3.210938 10.640625 -2.789062 10.703125 -2.4375 C 10.773438 -2.082031 10.914062 -1.789062 11.125 -1.5625 C 11.332031 -1.34375 11.628906 -1.175781 12.015625 -1.0625 C 12.410156 -0.945312 12.925781 -0.882812 13.5625 -0.875 L 13.5625 0 L 4.875 0 L 4.875 -0.875 C 5.519531 -0.882812 6.039062 -0.945312 6.4375 -1.0625 C 6.832031 -1.175781 7.132812 -1.34375 7.34375 -1.5625 C 7.550781 -1.789062 7.6875 -2.082031 7.75 -2.4375 C 7.820312 -2.789062 7.859375 -3.210938 7.859375 -3.703125 L 7.859375 -16.015625 C 7.859375 -16.148438 7.832031 -16.257812 7.78125 -16.34375 C 7.726562 -16.425781 7.617188 -16.5 7.453125 -16.5625 C 7.296875 -16.625 7.070312 -16.664062 6.78125 -16.6875 C 6.488281 -16.707031 6.097656 -16.71875 5.609375 -16.71875 C 5.015625 -16.71875 4.457031 -16.691406 3.9375 -16.640625 C 3.425781 -16.597656 2.984375 -16.46875 2.609375 -16.25 C 2.234375 -16.03125 1.929688 -15.6875 1.703125 -15.21875 C 1.472656 -14.757812 1.347656 -14.125 1.328125 -13.3125 L 0.484375 -13.3125 L 0.484375 -17.703125 L 17.84375 -17.703125 Z M 18.078125 -13.3125 "/></g></g></g></svg>